<svg width="26" height="26" viewBox="0 0 26 26" fill="none" xmlns="http://www.w3.org/2000/svg">
<path d="M9.92334 11.7758C9.815 11.765 9.685 11.765 9.56584 11.7758C6.9875 11.6892 4.94 9.57667 4.94 6.97667C4.94 4.32251 7.085 2.16667 9.75 2.16667C12.4042 2.16667 14.56 4.32251 14.56 6.97667C14.5492 9.57667 12.5017 11.6892 9.92334 11.7758Z" stroke="#8C8C8C" stroke-width="2" stroke-linecap="round" stroke-linejoin="round"/>
<path d="M17.7775 4.33333C19.8792 4.33333 21.5692 6.03416 21.5692 8.125C21.5692 10.1725 19.9442 11.8408 17.9183 11.9167C17.8317 11.9058 17.7342 11.9058 17.6367 11.9167" stroke="#8C8C8C" stroke-width="2" stroke-linecap="round" stroke-linejoin="round"/>
<path d="M4.50672 15.7733C1.88505 17.5283 1.88505 20.3883 4.50672 22.1325C7.48588 24.1258 12.3717 24.1258 15.3509 22.1325C17.9726 20.3775 17.9726 17.5175 15.3509 15.7733C12.3826 13.7908 7.49672 13.7908 4.50672 15.7733Z" stroke="#8C8C8C" stroke-width="2" stroke-linecap="round" stroke-linejoin="round"/>
<path d="M19.8683 21.6667C20.6483 21.5042 21.385 21.19 21.9917 20.7242C23.6817 19.4567 23.6817 17.3658 21.9917 16.0983C21.3958 15.6433 20.67 15.34 19.9008 15.1667" stroke="#8C8C8C" stroke-width="2" stroke-linecap="round" stroke-linejoin="round"/>
</svg>
