<svg width="14" height="14" viewBox="0 0 14 14" fill="none" xmlns="http://www.w3.org/2000/svg">
<path d="M6.33976 3.41664C6.34108 3.79935 6.26394 4.17826 6.11309 4.52998C5.89667 5.06025 5.52773 5.51437 5.05302 5.8348C4.5783 6.15524 4.01916 6.32757 3.44642 6.32998C2.87023 6.32996 2.30698 6.15909 1.8279 5.83897C1.34882 5.51885 0.975423 5.06385 0.754925 4.53152C0.534428 3.99918 0.476735 3.41342 0.58914 2.8483C0.701545 2.28318 0.979001 1.76408 1.38642 1.35664C1.65707 1.08513 1.97865 0.869697 2.33272 0.722704C2.68679 0.575712 3.06639 0.500047 3.44976 0.500047C3.83313 0.500047 4.21273 0.575712 4.5668 0.722704C4.92087 0.869697 5.24244 1.08513 5.51309 1.35664C6.05339 1.90701 6.35927 2.64542 6.36642 3.41664H6.33976ZM13.5064 3.41664C13.508 3.79871 13.4332 4.17723 13.2864 4.52998C13.1263 4.885 12.9001 5.20628 12.6198 5.47664C12.0723 6.02338 11.3302 6.33047 10.5564 6.33047C9.78269 6.33047 9.04058 6.02338 8.49309 5.47664C7.94676 4.93029 7.63983 4.18929 7.63983 3.41664C7.63983 2.644 7.94676 1.903 8.49309 1.35664C8.76262 1.08432 9.08345 0.868101 9.43703 0.720489C9.79061 0.572878 10.1699 0.496797 10.5531 0.496643C11.3286 0.498856 12.0716 0.808063 12.6198 1.35664C12.8969 1.62395 13.1181 1.94378 13.2703 2.29746C13.4225 2.65115 13.5028 3.03161 13.5064 3.41664ZM6.33976 10.5833C6.33779 10.9692 6.25608 11.3505 6.09976 11.7033C5.9577 12.0583 5.74443 12.3805 5.47309 12.65C5.20222 12.9219 4.88006 13.1373 4.5253 13.2838C4.17054 13.4303 3.79023 13.5049 3.40642 13.5033C2.83023 13.5033 2.26698 13.3324 1.7879 13.0123C1.30882 12.6922 0.935423 12.2372 0.714925 11.7049C0.494428 11.1725 0.436735 10.5868 0.54914 10.0216C0.661546 9.45651 0.939001 8.93741 1.34642 8.52998C1.61707 8.25846 1.93865 8.04303 2.29272 7.89604C2.64679 7.74904 3.02639 7.67338 3.40976 7.67338C3.79313 7.67338 4.17273 7.74904 4.5268 7.89604C4.88087 8.04303 5.20244 8.25846 5.47309 8.52998C6.01339 9.08035 6.31927 9.81876 6.32642 10.59L6.33976 10.5833ZM13.5064 10.5833C13.5051 11.1589 13.3333 11.7213 13.0127 12.1994C12.692 12.6774 12.237 13.0498 11.7049 13.2695C11.1728 13.4892 10.5876 13.5463 10.0231 13.4337C9.45859 13.321 8.9401 13.0437 8.53306 12.6367C8.12603 12.2296 7.84869 11.7111 7.73607 11.1466C7.62345 10.5821 7.68058 9.9969 7.90025 9.46484C8.11993 8.93277 8.49231 8.4777 8.97038 8.15707C9.44845 7.83644 10.0108 7.66463 10.5864 7.66331C11.3616 7.66697 12.1041 7.97596 12.6531 8.52331C12.9242 8.79339 13.1392 9.11446 13.2857 9.46802C13.4321 9.82158 13.5071 10.2006 13.5064 10.5833Z" fill="black"/>
</svg>
